<?xml version="1.0" encoding="UTF-8" standalone="no"?>
<!-- Created with Inkscape (http://www.inkscape.org/) -->

<svg
   version="1.1"
   id="svg1"
   width="355"
   height="275"
   viewBox="0 0 355 275"
   sodipodi:docname="logo.svg"
   inkscape:version="1.3.2 (091e20e, 2023-11-25, custom)"
   xmlns:inkscape="http://www.inkscape.org/namespaces/inkscape"
   xmlns:sodipodi="http://sodipodi.sourceforge.net/DTD/sodipodi-0.dtd"
   xmlns="http://www.w3.org/2000/svg"
   xmlns:svg="http://www.w3.org/2000/svg">
  <defs
     id="defs1" />
  <sodipodi:namedview
     id="namedview1"
     pagecolor="#ffffff"
     bordercolor="#000000"
     borderopacity="0.25"
     inkscape:showpageshadow="2"
     inkscape:pageopacity="0.0"
     inkscape:pagecheckerboard="0"
     inkscape:deskcolor="#d1d1d1"
     inkscape:zoom="2.8254545"
     inkscape:cx="177.67053"
     inkscape:cy="137.5"
     inkscape:window-width="1920"
     inkscape:window-height="991"
     inkscape:window-x="-9"
     inkscape:window-y="-9"
     inkscape:window-maximized="1"
     inkscape:current-layer="g1" />
  <g
     inkscape:groupmode="layer"
     inkscape:label="Image"
     id="g1">
    <path
       style="fill:#11171f;stroke:none"
       d="m 27.084902,69.824783 v 80.999997 c 0,11.18695 -2.62219,26.17297 3.96991,35.95987 9.60058,14.25342 31.395297,11.04013 46.030093,11.04013 20.700064,0 40.005865,-6.49551 53.535485,-23 C 160.2298,138.70495 141.33612,81.019863 95.084899,71.036203 73.807767,66.443383 48.823682,69.824783 27.084902,69.824783 M 223.0849,123.82478 c 3.45177,-11.98657 7.98027,-20.38051 3.28935,-32.999997 -8.13568,-21.88662 -38.99855,-27.50257 -56.11882,-13.10032 -8.46051,7.11733 -14.02134,19.97845 -11.65278,31.100317 0.9606,4.51064 5.81077,10.49615 4.99614,15 -1.62214,8.96815 -9.91591,15.95468 -11.22454,26 -3.56491,27.36519 20.68207,50.7305 47.71065,47.82639 24.98889,-2.68497 41.31647,-26.73381 37.07639,-50.82639 -1.50086,-8.52805 -6.16265,-18.76227 -14.07639,-23 M 190.08876,94.219073 c 15.16242,-3.50138 21.16599,18.911887 5.99538,22.207557 -14.06751,3.05603 -20.61093,-18.832467 -5.99538,-22.207557 M 60.084905,165.82478 v -64 c 13.492096,0 28.443234,-1.5845 39.996135,6.78857 18.79731,13.62352 15.16772,43.31931 -4.996141,53.40125 -10.54115,5.27057 -23.574976,3.81018 -34.999994,3.81018 m 186.999995,-61 c 0,30.21286 -12.19707,92.87524 33,93 v -38 c 0,-6.85229 -0.6413,-13.68863 5.10495,-18.60571 8.40356,-7.19098 13.60226,0.74688 21.89505,0.0633 5.43127,-0.44773 19.33841,-14.21758 20.53857,-19.45371 1.22165,-5.32983 -8.76605,-10.30281 -12.53857,-12.19368 -12.26544,-6.1477 -34.40775,-8.42241 -45,2.18982 -7.03705,-5.00595 -14.43472,-6.97636 -23,-7 M 83.084905,121.82478 h -2 c -3.380531,-7.07393 -14.879631,-10.84511 -17.31559,-0.99538 -2.774216,11.21746 3.686066,24.1651 11.355713,31.97994 2.998795,3.05557 7.222366,7.16105 11.956011,5.93674 7.02159,-1.81608 11.62157,-13.07172 14.683651,-18.9213 2.98085,-5.69443 6.58429,-14.6013 2.86342,-20.77547 -5.001351,-8.29893 -17.911261,-4.05644 -21.543205,2.77547 m 2.999994,35 c -11.289491,-8.121 -19.298975,-24.14336 -15.999994,-38 h 2 c 1.102402,2.32057 2.171402,4.64467 3.193672,7.00154 0.565758,1.30437 1.046936,2.77315 1.881172,3.93904 8.46331,11.82793 9.04879,-14.11491 17.70061,-12.10879 3.93364,0.91209 3.33909,7.25648 2.92438,10.16821 -1.4816,10.40269 -7.26492,19.68391 -11.69984,29 M 193.0849,142.16891 c 15.89078,-2.45343 20.88527,22.55803 5,25.42748 -17.58682,3.17682 -22.38373,-22.74355 -5,-25.42748 z"
       id="path1" />
  </g>
</svg>
